HIERARCHY
ROOT Hips
{
	OFFSET 0.053599 88.859886 3.107447
	CHANNELS 6 Xposition Yposition Zposition Zrotation Yrotation Xrotation 
	JOINT Spine
	{
		OFFSET -0.000000 8.814246 -2.080107
		CHANNELS 3 Zrotation Yrotation Xrotation
		JOINT Spine1
		{
			OFFSET 0.000000 8.844141 0.000000
			CHANNELS 3 Zrotation Yrotation Xrotation
			JOINT Spine2
			{
				OFFSET -0.000000 11.682268 0.000000
				CHANNELS 3 Zrotation Yrotation Xrotation
				JOINT Spine3
				{
					OFFSET 0.000000 11.746700 0.000000
					CHANNELS 3 Zrotation Yrotation Xrotation
					JOINT Neck
					{
						OFFSET -0.000000 17.658264 -0.000000
						CHANNELS 3 Zrotation Yrotation Xrotation
						JOINT Neck1
						{
							OFFSET -0.000000 5.101515 -0.000000
							CHANNELS 3 Zrotation Yrotation Xrotation
							JOINT Head
							{
								OFFSET 0.000000 5.101515 0.000000
								CHANNELS 3 Zrotation Yrotation Xrotation
								JOINT HeadEnd
								{
									OFFSET 0.000000 11.655085 0.000000
									CHANNELS 3 Zrotation Yrotation Xrotation
									End Site
									{
										OFFSET 0.000000 0.000000 0.000000
									}
								}
							}
						}
					}
					JOINT RightShoulder
					{
						OFFSET -2.625389 11.175210 0.000000
						CHANNELS 3 Zrotation Yrotation Xrotation
						JOINT RightArm
						{
							OFFSET -0.000000 10.434715 -0.000000
							CHANNELS 3 Zrotation Yrotation Xrotation
							JOINT RightForeArm
							{
								OFFSET -0.000000 29.628420 0.000000
								CHANNELS 3 Zrotation Yrotation Xrotation
								JOINT RightHand
								{
									OFFSET -0.000000 22.857611 0.000000
									CHANNELS 3 Zrotation Yrotation Xrotation
									JOINT RightHandThumb1
									{
										OFFSET -2.867323 3.959563 2.944291
										CHANNELS 3 Zrotation Yrotation Xrotation
										JOINT RightHandThumb2
										{
											OFFSET 0.000000 3.350399 0.000000
											CHANNELS 3 Zrotation Yrotation Xrotation
											JOINT RightHandThumb3
											{
												OFFSET 0.000000 3.756509 -0.000000
												CHANNELS 3 Zrotation Yrotation Xrotation
												JOINT RightHandThumb4
												{
													OFFSET 0.000000 3.147345 0.000000
													CHANNELS 3 Zrotation Yrotation Xrotation
													End Site
													{
														OFFSET 0.000000 0.000000 0.000000
													}
												}
											}
										}
									}
									JOINT RightHandIndex1
									{
										OFFSET -0.086752 10.030893 2.345280
										CHANNELS 3 Zrotation Yrotation Xrotation
										JOINT RightHandIndex2
										{
											OFFSET -0.000000 4.061090 0.000000
											CHANNELS 3 Zrotation Yrotation Xrotation
											JOINT RightHandIndex3
											{
												OFFSET -0.000000 3.248873 0.000000
												CHANNELS 3 Zrotation Yrotation Xrotation
												JOINT RightHandIndex4
												{
													OFFSET 0.000000 2.639709 -0.000000
													CHANNELS 3 Zrotation Yrotation Xrotation
													End Site
													{
														OFFSET 0.000000 0.000000 0.000000
													}
												}
											}
										}
									}
									JOINT RightHandMiddle1
									{
										OFFSET 0.104102 9.502952 0.006768
										CHANNELS 3 Zrotation Yrotation Xrotation
										JOINT RightHandMiddle2
										{
											OFFSET 0.000000 4.568727 0.000000
											CHANNELS 3 Zrotation Yrotation Xrotation
											JOINT RightHandMiddle3
											{
												OFFSET 0.000000 3.654981 -0.000000
												CHANNELS 3 Zrotation Yrotation Xrotation
												JOINT RightHandMiddle4
												{
													OFFSET -0.000000 2.741236 -0.000000
													CHANNELS 3 Zrotation Yrotation Xrotation
													End Site
													{
														OFFSET 0.000000 0.000000 0.000000
													}
												}
											}
										}
									}
									JOINT RightHandRing1
									{
										OFFSET 0.086752 8.921708 -2.267442
										CHANNELS 3 Zrotation Yrotation Xrotation
										JOINT RightHandRing2
										{
											OFFSET -0.000000 4.061090 0.000000
											CHANNELS 3 Zrotation Yrotation Xrotation
											JOINT RightHandRing3
											{
												OFFSET 0.000000 3.654981 -0.000000
												CHANNELS 3 Zrotation Yrotation Xrotation
												JOINT RightHandRing4
												{
													OFFSET 0.000000 2.741236 -0.000000
													CHANNELS 3 Zrotation Yrotation Xrotation
													End Site
													{
														OFFSET 0.000000 0.000000 0.000000
													}
												}
											}
										}
									}
									JOINT RightHandPinky1
									{
										OFFSET -0.173504 7.976997 -4.467199
										CHANNELS 3 Zrotation Yrotation Xrotation
										JOINT RightHandPinky2
										{
											OFFSET 0.000000 3.350399 -0.000000
											CHANNELS 3 Zrotation Yrotation Xrotation
											JOINT RightHandPinky3
											{
												OFFSET -0.000000 2.842763 0.000000
												CHANNELS 3 Zrotation Yrotation Xrotation
												JOINT RightHandPinky4
												{
													OFFSET -0.000000 2.639709 0.000000
													CHANNELS 3 Zrotation Yrotation Xrotation
													End Site
													{
														OFFSET 0.000000 0.000000 0.000000
													}
												}
											}
										}
									}
									JOINT RightForeArmEnd
									{
										OFFSET 0.000000 0.000000 0.000000
										CHANNELS 3 Zrotation Yrotation Xrotation
										End Site
										{
											OFFSET 0.000000 0.000000 0.000000
										}
									}
								}
								JOINT RightArmEnd
								{
									OFFSET 0.000000 0.000000 0.000000
									CHANNELS 3 Zrotation Yrotation Xrotation
									End Site
									{
										OFFSET 0.000000 0.000000 0.000000
									}
								}
							}
						}
					}
					JOINT LeftShoulder
					{
						OFFSET 2.625389 11.175210 0.000000
						CHANNELS 3 Zrotation Yrotation Xrotation
						JOINT LeftArm
						{
							OFFSET 0.000000 10.813635 -0.000000
							CHANNELS 3 Zrotation Yrotation Xrotation
							JOINT LeftForeArm
							{
								OFFSET 0.000000 28.724781 0.000000
								CHANNELS 3 Zrotation Yrotation Xrotation
								JOINT LeftHand
								{
									OFFSET 0.644384 25.716167 -0.328871
									CHANNELS 3 Zrotation Yrotation Xrotation
									JOINT LeftHandThumb1
									{
										OFFSET 2.867323 3.959563 2.944291
										CHANNELS 3 Zrotation Yrotation Xrotation
										JOINT LeftHandThumb2
										{
											OFFSET 0.000000 3.350399 0.000000
											CHANNELS 3 Zrotation Yrotation Xrotation
											JOINT LeftHandThumb3
											{
												OFFSET -0.000000 3.756509 0.000000
												CHANNELS 3 Zrotation Yrotation Xrotation
												JOINT LeftHandThumb4
												{
													OFFSET -0.000000 3.100000 0.000000
													CHANNELS 3 Zrotation Yrotation Xrotation
													End Site
													{
														OFFSET 0.000000 0.000000 0.000000
													}
												}
											}
										}
									}
									JOINT LeftHandIndex1
									{
										OFFSET 0.086752 10.030893 2.345280
										CHANNELS 3 Zrotation Yrotation Xrotation
										JOINT LeftHandIndex2
										{
											OFFSET -0.000000 4.061090 -0.000000
											CHANNELS 3 Zrotation Yrotation Xrotation
											JOINT LeftHandIndex3
											{
												OFFSET 0.000000 3.248873 -0.000000
												CHANNELS 3 Zrotation Yrotation Xrotation
												JOINT LeftHandIndex4
												{
													OFFSET 0.000000 2.639709 -0.000000
													CHANNELS 3 Zrotation Yrotation Xrotation
													End Site
													{
														OFFSET 0.000000 0.000000 0.000000
													}
												}
											}
										}
									}
									JOINT LeftHandMiddle1
									{
										OFFSET -0.104102 9.502952 0.006768
										CHANNELS 3 Zrotation Yrotation Xrotation
										JOINT LeftHandMiddle2
										{
											OFFSET -0.000000 4.568727 -0.000000
											CHANNELS 3 Zrotation Yrotation Xrotation
											JOINT LeftHandMiddle3
											{
												OFFSET 0.000000 3.654981 0.000000
												CHANNELS 3 Zrotation Yrotation Xrotation
												JOINT LeftHandMiddle4
												{
													OFFSET 0.000000 2.741236 -0.000000
													CHANNELS 3 Zrotation Yrotation Xrotation
													End Site
													{
														OFFSET 0.000000 0.000000 0.000000
													}
												}
											}
										}
									}
									JOINT LeftHandRing1
									{
										OFFSET -0.086752 8.921708 -2.267442
										CHANNELS 3 Zrotation Yrotation Xrotation
										JOINT LeftHandRing2
										{
											OFFSET 0.000000 4.061090 0.000000
											CHANNELS 3 Zrotation Yrotation Xrotation
											JOINT LeftHandRing3
											{
												OFFSET 0.000000 3.654981 0.000000
												CHANNELS 3 Zrotation Yrotation Xrotation
												JOINT LeftHandRing4
												{
													OFFSET 0.000000 2.741236 0.000000
													CHANNELS 3 Zrotation Yrotation Xrotation
													End Site
													{
														OFFSET 0.000000 0.000000 0.000000
													}
												}
											}
										}
									}
									JOINT LeftHandPinky1
									{
										OFFSET 0.173504 7.976997 -4.467199
										CHANNELS 3 Zrotation Yrotation Xrotation
										JOINT LeftHandPinky2
										{
											OFFSET -0.000000 3.350399 -0.000000
											CHANNELS 3 Zrotation Yrotation Xrotation
											JOINT LeftHandPinky3
											{
												OFFSET 0.000000 2.842763 0.000000
												CHANNELS 3 Zrotation Yrotation Xrotation
												JOINT LeftHandPinky4
												{
													OFFSET -0.000000 2.639709 -0.000000
													CHANNELS 3 Zrotation Yrotation Xrotation
													End Site
													{
														OFFSET 0.000000 0.000000 0.000000
													}
												}
											}
										}
									}
									JOINT LeftForeArmEnd
									{
										OFFSET 0.000000 0.000000 0.000000
										CHANNELS 3 Zrotation Yrotation Xrotation
										End Site
										{
											OFFSET 0.000000 0.000000 0.000000
										}
									}
								}
								JOINT LeftArmEnd
								{
									OFFSET 0.000000 0.000000 0.000000
									CHANNELS 3 Zrotation Yrotation Xrotation
									End Site
									{
										OFFSET 0.000000 0.000000 0.000000
									}
								}
							}
						}
					}
				}
			}
		}
	}
	JOINT RightUpLeg
	{
		OFFSET -11.289943 0.000000 0.000000
		CHANNELS 3 Zrotation Yrotation Xrotation
		JOINT RightLeg
		{
			OFFSET 0.000000 -38.200325 0.000000
			CHANNELS 3 Zrotation Yrotation Xrotation
			JOINT RightFoot
			{
				OFFSET -0.000000 -39.900856 -0.000000
				CHANNELS 3 Zrotation Yrotation Xrotation
				JOINT RightToeBase
				{
					OFFSET 0.000000 0.000000 15.261641
					CHANNELS 3 Zrotation Yrotation Xrotation
					JOINT RightToeBaseEnd
					{
						OFFSET 0.000000 0.000000 7.370709
						CHANNELS 3 Zrotation Yrotation Xrotation
						End Site
						{
							OFFSET 0.000000 0.000000 0.000000
						}
					}
				}
				JOINT RightLegEnd
				{
					OFFSET 0.000000 0.000000 0.000000
					CHANNELS 3 Zrotation Yrotation Xrotation
					End Site
					{
						OFFSET 0.000000 0.000000 0.000000
					}
				}
			}
			JOINT RightUpLegEnd
			{
				OFFSET 0.000000 0.000000 0.000000
				CHANNELS 3 Zrotation Yrotation Xrotation
				End Site
				{
					OFFSET 0.000000 0.000000 0.000000
				}
			}
		}
	}
	JOINT LeftUpLeg
	{
		OFFSET 11.315661 -0.000000 0.000000
		CHANNELS 3 Zrotation Yrotation Xrotation
		JOINT LeftLeg
		{
			OFFSET -0.000000 -38.200325 -0.000000
			CHANNELS 3 Zrotation Yrotation Xrotation
			JOINT LeftFoot
			{
				OFFSET 0.000000 -39.900856 -0.000000
				CHANNELS 3 Zrotation Yrotation Xrotation
				JOINT LeftToeBase
				{
					OFFSET -0.000000 -0.000000 15.261641
					CHANNELS 3 Zrotation Yrotation Xrotation
					JOINT LeftToeBaseEnd
					{
						OFFSET 0.000000 -0.000000 7.539996
						CHANNELS 3 Zrotation Yrotation Xrotation
						End Site
						{
							OFFSET 0.000000 0.000000 0.000000
						}
					}
				}
				JOINT LeftLegEnd
				{
					OFFSET 0.000000 0.000000 0.000000
					CHANNELS 3 Zrotation Yrotation Xrotation
					End Site
					{
						OFFSET 0.000000 0.000000 0.000000
					}
				}
			}
			JOINT LeftUpLegEnd
			{
				OFFSET 0.000000 0.000000 0.000000
				CHANNELS 3 Zrotation Yrotation Xrotation
				End Site
				{
					OFFSET 0.000000 0.000000 0.000000
				}
			}
		}
	}
}
MOTION
Frames: 4
Frame Time: 0.016667
0.402133 88.733002 3.449831 -0.135012 -2.033915 -11.456497 0.957319 0.164574 7.263175 -1.064192 0.178730 2.210498 -0.228426 -0.263589 5.256852 -1.314376 0.124710 3.968746 0.615143 0.633081 4.006315 0.408740 0.702945 -3.320166 -0.458674 -1.188170 -19.373686 0.000000 0.000000 0.000000 91.386963 -0.263864 10.350778 67.370155 -27.578001 0.971663 -0.640625 17.736456 54.199409 4.159417 3.881732 -6.257745 19.783722 30.122984 62.126503 -8.427157 -11.964354 -20.299503 -6.235476 -7.882691 -14.050243 0.000000 0.000000 0.000000 11.714291 -10.707557 2.966132 9.786160 0.143242 1.984535 9.479527 -0.275514 1.907396 0.000000 0.000000 0.000000 11.000129 -5.265846 0.769330 8.441396 0.361503 0.782856 9.131715 -0.117390 0.664671 0.000000 0.000000 0.000000 11.854217 2.339947 -1.333716 9.175123 -0.783310 -1.139505 9.275564 0.146414 -0.820209 0.000000 0.000000 0.000000 11.044587 10.741632 -4.148726 9.015858 -1.352195 -3.126558 8.892768 0.504358 -2.643527 0.000000 0.000000 0.000000 0.000000 0.000000 0.000000 0.000000 0.000000 0.000000 -87.454727 -0.001967 4.879824 -74.795609 13.347791 -7.805346 -0.560148 -15.156392 72.033333 -6.048304 -6.151264 -11.562666 -19.430775 -30.234333 62.311012 8.160715 11.452713 -19.512907 6.026656 7.745781 -13.668717 0.000000 0.000000 0.000000 -13.462275 -6.219633 5.429198 -8.988577 0.279590 -1.266754 -8.774720 -0.173160 -1.197286 0.000000 0.000000 0.000000 -12.424866 -1.221236 2.069059 -8.923878 0.401455 -0.575182 -9.023503 -0.079198 -0.472483 0.000000 0.000000 0.000000 -14.777595 6.835060 -1.991577 -10.638778 -0.836601 0.889393 -10.666518 0.109936 0.687688 0.000000 0.000000 0.000000 -17.482948 15.464725 -6.622491 -11.897449 -1.469346 2.844112 -11.625056 0.457391 2.492929 0.000000 0.000000 0.000000 0.000000 0.000000 0.000000 0.000000 0.000000 0.000000 -1.665584 -9.698421 15.662612 -0.076678 -0.714926 5.316198 -2.215004 -6.819335 17.422857 -0.846955 0.910373 -18.482519 0.000000 0.000000 0.000000 0.000000 0.000000 0.000000 0.000000 0.000000 0.000000 -1.664909 -5.871319 9.641733 0.077317 0.325848 11.183526 4.161867 -1.066052 16.766243 0.303470 -0.335148 -21.257536 0.000000 0.000000 0.000000 0.000000 0.000000 0.000000 0.000000 0.000000 0.000000 
0.405860 88.734444 3.428535 -0.137732 -2.058196 -11.457929 0.969912 0.166339 7.232515 -1.064919 0.183027 2.230130 -0.236610 -0.216571 5.240210 -1.353121 0.143841 4.003132 0.561826 0.611634 4.119198 0.385694 0.629580 -3.280991 -0.444487 -1.187662 -19.410643 0.000000 0.000000 0.000000 91.375038 -0.277962 10.352843 67.299644 -27.471899 0.988297 -0.660989 17.766733 54.818020 3.872133 4.229769 -5.972513 19.669498 30.159788 62.232960 -8.311243 -11.744888 -19.964718 -6.141743 -7.737312 -13.819094 0.000000 0.000000 0.000000 10.780947 -10.556116 3.507276 9.249314 0.155479 1.960040 8.930226 -0.264396 1.884817 0.000000 0.000000 0.000000 10.122882 -5.115985 1.153829 7.916506 0.366252 0.771869 8.612551 -0.113629 0.655125 0.000000 0.000000 0.000000 10.998627 2.492669 -1.179442 8.639989 -0.791222 -1.124540 8.737904 0.141341 -0.808361 0.000000 0.000000 0.000000 10.231265 10.878469 -4.200562 8.535783 -1.374498 -3.081411 8.417462 0.487255 -2.602214 0.000000 0.000000 0.000000 0.000000 0.000000 0.000000 0.000000 0.000000 0.000000 -87.451080 0.009076 4.838273 -74.605125 13.398404 -7.750971 -0.535633 -15.172559 72.564415 -6.320399 -6.409477 -11.288670 -19.334162 -30.266014 62.406006 8.061741 11.259608 -19.226700 5.944491 7.614436 -13.466600 0.000000 0.000000 0.000000 -12.831214 -6.343551 5.879877 -8.627109 0.292654 -1.232525 -8.413974 -0.160677 -1.168038 0.000000 0.000000 0.000000 -11.821356 -1.332057 2.376368 -8.560229 0.406537 -0.560885 -8.672493 -0.075074 -0.461528 0.000000 0.000000 0.000000 -14.197972 6.735263 -1.857430 -10.257576 -0.846187 0.871291 -10.287429 0.103214 0.673781 0.000000 0.000000 0.000000 -17.010660 15.395633 -6.646769 -11.562564 -1.497799 2.799154 -11.274649 0.435370 2.453349 0.000000 0.000000 0.000000 0.000000 0.000000 0.000000 0.000000 0.000000 0.000000 -1.655958 -9.658184 15.626753 -0.077008 -0.711914 5.347945 -2.222546 -6.794061 17.451267 -0.844263 0.907929 -18.496132 0.000000 0.000000 0.000000 0.000000 0.000000 0.000000 0.000000 0.000000 0.000000 -1.664691 -5.874794 9.628680 0.078255 0.326479 11.249640 4.149979 -1.065979 16.744917 0.302835 -0.333919 -21.267836 0.000000 0.000000 0.000000 0.000000 0.000000 0.000000 0.000000 0.000000 0.000000 
0.408205 88.734924 3.406409 -0.144758 -2.087108 -11.460372 0.987548 0.167781 7.215683 -1.064616 0.187961 2.248746 -0.232314 -0.173572 5.211027 -1.391137 0.167194 4.032333 0.529627 0.574073 4.247212 0.365755 0.548454 -3.226408 -0.429440 -1.191760 -19.421728 0.000000 0.000000 0.000000 91.374725 -0.288363 10.366895 67.242188 -27.474670 1.034018 -0.675450 17.733429 55.174221 3.629661 4.542545 -5.663965 19.593594 30.186255 62.305721 -8.231167 -11.597507 -19.738110 -6.077803 -7.640277 -13.666925 0.000000 0.000000 0.000000 10.119398 -10.446259 3.897500 8.888683 0.168210 1.934975 8.557779 -0.253066 1.862102 0.000000 0.000000 0.000000 9.495769 -5.009766 1.441754 7.569979 0.371134 0.759985 8.265825 -0.109636 0.645144 0.000000 0.000000 0.000000 10.349403 2.610088 -1.029174 8.282298 -0.799813 -1.108797 8.375400 0.135886 -0.795606 0.000000 0.000000 0.000000 9.576548 10.992736 -4.161211 8.204251 -1.397616 -3.035688 8.092586 0.468773 -2.559864 0.000000 0.000000 0.000000 0.000000 0.000000 0.000000 0.000000 0.000000 0.000000 -87.472443 0.022285 4.814460 -74.397911 13.638900 -7.703145 -0.509777 -15.112903 72.890465 -6.516714 -6.783280 -11.017166 -19.254793 -30.293882 62.486351 7.979815 11.099633 -18.986315 5.875163 7.503609 -13.298592 0.000000 0.000000 0.000000 -12.324701 -6.444849 6.265025 -8.341025 0.305293 -1.204130 -8.130719 -0.148946 -1.143292 0.000000 0.000000 0.000000 -11.357463 -1.420219 2.657298 -8.268433 0.411181 -0.548388 -8.390298 -0.071318 -0.452238 0.000000 0.000000 0.000000 -13.755610 6.660104 -1.699880 -9.949960 -0.855977 0.855287 -9.981792 0.096579 0.661662 0.000000 0.000000 0.000000 -16.662632 15.348225 -6.595831 -11.287308 -1.526650 2.758045 -10.987869 0.413066 2.415839 0.000000 0.000000 0.000000 0.000000 0.000000 0.000000 0.000000 0.000000 0.000000 -1.634089 -9.619874 15.606905 -0.077093 -0.709661 5.361603 -2.238297 -6.768241 17.482426 -0.843025 0.904097 -18.509300 0.000000 0.000000 0.000000 0.000000 0.000000 0.000000 0.000000 0.000000 0.000000 -1.655563 -5.882078 9.638420 0.079554 0.327622 11.294394 4.135039 -1.046958 16.721914 0.303167 -0.333250 -21.275650 0.000000 0.000000 0.000000 0.000000 0.000000 0.000000 0.000000 0.000000 0.000000 
0.410055 88.732742 3.387460 -0.150086 -2.116225 -11.464051 0.998632 0.168185 7.210244 -1.056252 0.188419 2.255777 -0.225298 -0.149466 5.176952 -1.415579 0.184246 4.050879 0.515312 0.537188 4.390958 0.351903 0.485509 -3.160275 -0.418314 -1.194624 -19.417904 0.000000 0.000000 0.000000 91.385582 -0.293525 10.380523 67.182243 -27.577158 1.104412 -0.680323 17.694441 55.267365 3.514512 4.732536 -5.422111 19.565182 30.198622 62.337639 -8.196922 -11.538912 -19.644154 -6.052108 -7.602161 -13.606917 0.000000 0.000000 0.000000 9.798401 -10.390262 4.050958 8.727246 0.182904 1.900417 8.388648 -0.239532 1.830279 0.000000 0.000000 0.000000 9.185534 -4.958441 1.558679 7.423731 0.376869 0.744346 8.115338 -0.104842 0.632231 0.000000 0.000000 0.000000 9.987480 2.678140 -0.947913 8.132504 -0.809636 -1.089000 8.218232 0.129367 -0.779942 0.000000 0.000000 0.000000 9.162087 11.070281 -4.098969 8.051170 -1.422723 -2.982403 7.947814 0.447110 -2.511705 0.000000 0.000000 0.000000 0.000000 0.000000 0.000000 0.000000 0.000000 0.000000 -87.515366 0.035084 4.801399 -74.255913 13.965909 -7.702261 -0.499756 -15.032716 72.989548 -6.681879 -7.158712 -10.761078 -19.197790 -30.314079 62.544399 7.926904 10.985271 -18.811829 5.827040 7.422253 -13.179146 0.000000 0.000000 0.000000 -11.977907 -6.511367 6.495019 -8.122647 0.317251 -1.181744 -7.918273 -0.137960 -1.123906 0.000000 0.000000 0.000000 -11.068291 -1.478319 2.841906 -8.044305 0.415548 -0.537948 -8.173798 -0.067780 -0.444657 0.000000 0.000000 0.000000 -13.477587 6.611042 -1.573592 -9.723289 -0.865396 0.841914 -9.752454 0.090201 0.651711 0.000000 0.000000 0.000000 -16.445801 15.317335 -6.520622 -11.080888 -1.554005 2.721182 -10.772540 0.391089 2.382659 0.000000 0.000000 0.000000 0.000000 0.000000 0.000000 0.000000 0.000000 0.000000 -1.609152 -9.588042 15.612334 -0.077086 -0.709719 5.346751 -2.261850 -6.737845 17.503426 -0.844679 0.900145 -18.511833 0.000000 0.000000 0.000000 0.000000 0.000000 0.000000 0.000000 0.000000 0.000000 -1.646990 -5.883803 9.666656 0.081163 0.329117 11.323498 4.126013 -1.011657 16.694157 0.303062 -0.333393 -21.274422 0.000000 0.000000 0.000000 0.000000 0.000000 0.000000 0.000000 0.000000 0.000000 
